<?xml version="1.0" standalone="no"?>
<!DOCTYPE svg PUBLIC "-//W3C//DTD SVG 20010904//EN"
 "http://www.w3.org/TR/2001/REC-SVG-20010904/DTD/svg10.dtd">
<svg version="1.0" xmlns="http://www.w3.org/2000/svg"
 width="2000.000000pt" height="2000.000000pt" viewBox="0 0 2000.000000 2000.000000"
 preserveAspectRatio="xMidYMid meet">
<metadata>
Created by potrace 1.14, written by Peter Selinger 2001-2017
</metadata>
<g transform="translate(0.000000,2000.000000) scale(0.100000,-0.100000)"
fill="#000000" stroke="none">
<path d="M9255 19289 c-384 -12 -892 -65 -1315 -138 -1256 -216 -2355 -647
-3280 -1285 -240 -165 -328 -234 -560 -433 -245 -211 -302 -267 -523 -508
-226 -245 -269 -298 -468 -574 -120 -168 -222 -313 -225 -324 -5 -17 -13 -19
-63 -14 -409 43 -967 30 -1291 -28 -297 -54 -785 -217 -1053 -351 -125 -63
-181 -99 -245 -158 -53 -49 -67 -76 -76 -144 -5 -39 -16 -65 -43 -100 -44 -58
-77 -128 -98 -208 -14 -54 -15 -217 -13 -1445 l3 -1384 25 -65 c73 -186 237
-331 420 -370 40 -8 233 -11 703 -8 427 2 647 0 647 -7 0 -28 -32 -540 -34
-542 -1 -1 -111 -7 -245 -13 -266 -12 -288 -17 -317 -72 -32 -62 -96 -255
-134 -403 -139 -544 -156 -1146 -54 -1855 46 -324 126 -680 214 -952 33 -105
46 -131 73 -154 l32 -27 217 6 216 6 7 -77 c65 -769 132 -1235 245 -1708 51
-214 104 -373 213 -644 77 -193 90 -232 88 -276 -5 -133 117 -531 249 -810
150 -318 537 -953 831 -1365 l68 -96 61 -524 c35 -302 67 -538 75 -556 8 -18
27 -39 44 -47 80 -42 2283 -936 2306 -936 14 0 121 29 238 64 475 144 845 232
1227 293 155 24 492 22 970 -5 700 -41 848 -46 1360 -46 636 0 1005 21 1450
85 949 135 2308 614 3623 1276 513 259 776 422 1092 677 441 356 890 850 1229
1353 82 121 42 112 353 82 178 -17 228 -25 276 -45 55 -23 61 -24 83 -9 16 10
44 15 91 13 98 -2 103 2 199 153 101 159 194 633 196 1004 1 187 -10 279 -42
351 -19 45 -62 90 -98 105 -12 4 -127 18 -255 30 -127 11 -232 22 -233 23 0 0
16 120 37 266 58 404 159 1262 159 1353 0 18 12 18 268 12 l267 -8 32 27 c37
31 55 76 113 277 132 456 213 959 240 1484 21 421 -27 875 -135 1269 -36 132
-98 306 -121 343 -31 49 -49 53 -279 63 -119 5 -218 10 -220 12 -2 2 -8 111
-14 243 -6 132 -13 254 -15 270 l-4 30 632 0 631 0 75 29 c145 55 260 157 326
288 66 132 64 65 64 1538 0 1438 1 1400 -52 1520 -14 30 -42 77 -62 103 -30
39 -38 61 -45 112 -9 77 -36 117 -130 186 -73 55 -295 168 -441 224 -245 95
-624 207 -812 240 -264 46 -691 66 -1018 46 -107 -6 -209 -14 -226 -17 -31 -6
-32 -4 -92 103 -34 59 -157 239 -274 399 -197 270 -231 311 -457 549 -223 235
-266 275 -522 483 -253 207 -305 244 -586 421 -285 180 -335 207 -668 367
-328 156 -394 184 -740 308 -340 121 -425 147 -805 245 -374 97 -480 120 -880
191 -395 70 -521 88 -956 135 -717 78 -1099 94 -1749 74z m840 -645 c287 -12
465 -26 875 -70 453 -48 569 -65 965 -134 388 -69 505 -94 848 -182 l397 -103
50 -118 c111 -262 211 -595 261 -867 40 -217 37 -785 -7 -1635 -9 -170 -18
-312 -20 -314 -2 -2 -54 11 -116 29 -720 207 -1541 349 -2398 414 -719 56
-1616 56 -2339 0 -937 -71 -1783 -227 -2559 -470 -79 -25 -145 -44 -147 -42
-2 2 -10 138 -19 303 -41 778 -49 1360 -21 1555 41 285 113 551 232 857 l55
142 50 21 c26 11 194 70 371 131 849 290 1830 462 2787 488 168 4 321 9 340 9
19 1 197 -5 395 -14z m4264 -949 c308 -148 372 -183 645 -355 274 -173 331
-213 572 -411 246 -200 289 -240 507 -471 218 -232 255 -277 441 -533 180
-250 220 -312 365 -575 145 -262 178 -332 301 -630 122 -298 149 -375 243
-695 58 -198 113 -395 121 -439 14 -66 16 -173 16 -695 0 -667 2 -693 55 -809
14 -31 43 -79 65 -108 35 -46 38 -55 33 -94 -7 -51 14 -98 56 -123 l28 -16 7
-153 c3 -84 9 -204 13 -266 l6 -114 -194 4 c-107 2 -201 -1 -210 -5 -14 -7
-17 12 -23 170 -32 853 -123 1722 -212 2038 -71 250 -221 401 -463 467 -62 17
-105 21 -236 21 -192 0 -304 -19 -345 -58 l-27 -26 -89 77 c-396 340 -966 686
-1551 944 -103 46 -189 84 -190 84 -1 1 4 42 12 90 51 313 65 888 32 1243 -40
422 -140 926 -282 1428 -44 158 -48 175 -42 175 2 0 158 -74 346 -165z m-9080
-202 c-165 -608 -247 -1120 -265 -1653 -9 -293 22 -774 65 -980 l7 -34 -196
-97 c-433 -215 -821 -464 -1155 -742 -85 -70 -93 -74 -115 -62 -85 43 -423 56
-555 21 -214 -56 -363 -183 -436 -371 -100 -257 -186 -961 -234 -1915 -8 -173
-18 -347 -21 -387 l-6 -72 -26 10 c-17 7 -82 8 -180 4 l-154 -8 6 74 c3 41 13
196 21 344 9 149 18 284 22 300 3 17 19 49 35 73 16 23 39 64 50 90 50 113 50
114 58 722 6 453 11 591 23 650 8 41 56 229 107 418 85 321 99 364 225 681
124 312 147 360 301 642 153 279 185 329 380 599 188 261 240 324 441 543 191
207 271 284 483 468 211 182 305 255 545 421 236 164 567 368 596 368 4 0 -6
-48 -22 -107z m-2563 -1709 l31 -6 -103 -186 c-81 -148 -130 -255 -234 -517
-143 -356 -162 -408 -188 -500 l-17 -60 -7 235 c-5 215 -8 242 -32 315 -48
150 -153 273 -291 341 -124 61 -155 64 -700 64 l-490 1 70 30 c112 49 472 166
638 209 153 39 303 64 484 80 104 9 787 5 839 -6z m15304 -9 c251 -31 503 -96
825 -212 308 -111 332 -102 -265 -103 -574 0 -575 0 -704 -68 -129 -67 -237
-199 -282 -342 -12 -40 -18 -108 -23 -250 l-6 -195 -28 100 c-40 138 -325 833
-391 952 -30 54 -56 105 -58 113 -5 22 111 28 482 25 216 -2 357 -8 450 -20z
m-7730 -255 c1298 -44 2436 -236 3445 -581 116 -39 262 -93 325 -120 63 -27
120 -49 126 -49 22 0 364 -154 554 -249 595 -298 1087 -642 1446 -1013 129
-133 132 -137 177 -244 85 -203 178 -490 241 -742 96 -383 147 -750 171 -1237
15 -305 45 -403 137 -451 36 -19 126 -18 184 2 25 8 48 14 50 12 2 -2 -5 -33
-15 -69 l-18 -64 -51 0 c-61 0 -102 -26 -118 -76 -8 -25 -6 -324 6 -1099 19
-1167 15 -1111 77 -1143 23 -13 29 -27 50 -118 12 -57 35 -141 49 -185 l27
-82 -27 -228 c-76 -650 -185 -1283 -302 -1756 -55 -225 -112 -418 -127 -437
-7 -7 -105 -254 -218 -548 l-205 -535 -90 -105 c-175 -207 -470 -489 -734
-703 -1241 -1003 -2863 -1629 -4686 -1809 -409 -41 -546 -46 -1144 -46 -596 0
-725 5 -1175 46 -1942 176 -3488 782 -4504 1764 -326 315 -576 647 -747 991
l-75 150 -139 680 c-76 373 -141 686 -144 694 -17 45 -119 628 -161 924 -26
181 -65 512 -85 709 l-11 107 40 83 c42 85 82 212 103 323 10 55 16 68 38 79
15 8 35 27 45 42 18 26 20 90 34 1105 14 988 14 1080 -1 1111 -21 43 -77 71
-124 62 -32 -6 -34 -4 -34 21 0 15 5 55 11 89 l10 61 83 -1 c75 0 86 2 119 28
76 58 93 124 112 447 20 321 32 456 61 657 69 487 194 940 385 1390 l61 142
109 105 c764 732 1906 1279 3329 1595 953 211 2165 310 3330 271z m-8528 -323
c69 -34 149 -118 174 -184 18 -45 19 -97 22 -827 l3 -779 -31 -216 c-16 -119
-33 -234 -36 -256 -3 -22 -20 -229 -39 -459 -37 -476 -27 -437 -130 -473 -45
-15 -108 -17 -635 -18 l-585 0 -58 23 c-70 28 -144 98 -177 167 -23 46 -25 64
-28 210 l-3 160 47 -93 c171 -341 582 -503 955 -377 318 109 532 400 532 725
0 128 -20 216 -73 325 -73 151 -192 269 -344 345 -120 59 -218 81 -356 81
-143 0 -239 -23 -369 -88 -156 -78 -302 -233 -367 -390 l-24 -58 0 971 c0
1078 -4 1014 68 1109 42 55 123 109 186 124 23 5 292 8 626 8 l585 -2 57 -28z
m17553 2 c72 -27 147 -96 182 -167 l28 -57 2 -995 c2 -860 0 -990 -12 -957
-73 198 -254 382 -449 458 -201 78 -406 78 -600 0 -104 -42 -178 -91 -262
-175 -136 -136 -203 -291 -212 -486 -4 -96 -1 -130 17 -200 68 -270 254 -471
521 -561 79 -27 114 -33 212 -37 137 -5 221 7 331 50 200 77 366 244 442 445
13 35 14 26 12 -127 l-2 -165 -34 -63 c-39 -71 -78 -110 -154 -150 l-52 -27
-610 0 -610 0 -55 27 c-72 35 -136 99 -169 168 l-26 55 0 1370 0 1370 22 47
c44 96 145 177 247 198 22 5 297 7 609 4 539 -4 571 -6 622 -25z m-15892
-1415 c12 -4 0 -37 -58 -157 -175 -366 -325 -828 -414 -1272 -57 -286 -91
-574 -111 -940 -11 -214 -25 -334 -40 -349 -13 -13 -79 8 -174 56 l-78 39 6
117 c3 64 11 209 17 322 47 948 135 1690 227 1919 50 127 172 223 322 255 64
14 275 21 303 10z m13277 -79 c137 -42 228 -116 281 -229 106 -227 192 -964
249 -2146 11 -212 10 -225 -7 -238 -26 -21 -151 -78 -195 -90 l-38 -10 -9 36
c-14 55 -20 116 -31 332 -26 480 -80 852 -185 1255 -86 334 -211 681 -345 962
l-68 142 26 5 c56 10 268 -3 322 -19z m-14614 -2757 c-88 -295 -133 -618 -145
-1057 -20 -744 54 -1431 194 -1804 18 -50 33 -93 31 -94 -8 -9 -698 -25 -705
-17 -13 13 -77 242 -117 415 -100 439 -155 907 -155 1329 0 397 46 735 146
1065 56 183 40 165 147 166 51 1 161 5 243 9 83 3 199 7 259 8 108 2 108 2
102 -20z m16194 3 l114 -6 19 -50 c53 -142 116 -415 147 -635 85 -606 16
-1391 -187 -2124 l-47 -169 -206 7 c-113 3 -271 9 -352 13 l-147 6 16 36 c35
80 84 251 112 390 156 767 137 1991 -38 2495 l-21 59 238 -8 c130 -4 289 -10
352 -14z m-15905 -65 c13 -30 34 -89 47 -132 22 -76 22 -78 3 -88 -38 -22 -64
-54 -74 -92 -14 -54 -57 -401 -77 -629 -24 -258 -24 -790 0 -1080 24 -298 42
-438 60 -473 19 -37 78 -66 118 -58 30 6 30 6 23 -31 -9 -50 -52 -184 -65
-203 -16 -24 -34 8 -74 134 -161 504 -212 1532 -110 2251 26 185 98 455 121
455 2 0 15 -24 28 -54z m15115 -61 c172 -538 170 -1830 -5 -2499 -30 -115 -77
-238 -93 -244 -11 -3 -64 148 -77 221 -7 37 -7 38 17 32 36 -9 94 19 116 55
14 22 23 74 36 193 54 539 59 992 15 1457 -20 216 -62 526 -75 558 -7 18 -27
40 -44 50 -16 9 -30 22 -30 29 0 18 57 189 75 223 9 17 20 28 25 25 5 -3 23
-48 40 -100z m99 -3010 c34 -11 68 -30 89 -51 l35 -35 -6 -247 c-6 -263 -16
-356 -86 -807 -22 -143 -47 -311 -55 -373 -18 -125 -30 -157 -76 -196 -66 -55
-208 -70 -430 -45 -92 11 -100 14 -100 33 1 47 33 243 74 456 25 124 50 261
56 305 6 44 20 123 30 175 10 52 28 181 40 285 29 266 49 361 101 482 l20 46
127 -6 c72 -3 151 -13 181 -22z m-15175 -67 c2 -7 16 -121 30 -253 59 -525
142 -1027 258 -1560 40 -188 158 -761 158 -772 0 -2 -55 -3 -123 -3 l-122 0
-13 64 c-6 35 -77 230 -158 433 -80 202 -161 418 -179 479 -89 295 -183 850
-230 1359 -8 94 -18 189 -21 212 l-5 42 128 4 c70 1 161 4 201 5 51 1 74 -2
76 -10z m15141 -1869 c198 -18 364 -35 368 -39 5 -4 -3 -43 -16 -87 -81 -256
-139 -727 -118 -963 4 -52 7 -96 6 -97 -2 -3 -759 67 -762 71 -2 2 -9 78 -15
170 -20 273 10 574 78 780 36 110 74 196 88 196 6 0 173 -14 371 -31z m550
-386 c-14 -190 -65 -526 -82 -543 -7 -7 5 151 23 295 15 125 54 335 61 335 3
0 2 -39 -2 -87z m-1297 -344 c12 -26 29 -94 38 -150 8 -57 19 -127 24 -155 4
-28 31 -100 58 -160 74 -161 74 -166 14 -266 -245 -405 -611 -809 -1143 -1261
-218 -186 -642 -441 -1199 -721 -719 -363 -1394 -635 -2275 -917 -626 -200
-1168 -292 -1956 -330 -285 -13 -1645 -6 -1854 10 -951 75 -1864 291 -2750
651 -132 54 -445 181 -695 282 -749 304 -930 391 -1215 586 -220 150 -286 212
-427 402 -394 531 -660 1000 -816 1440 -93 263 -109 347 -78 408 56 109 241
156 357 90 50 -27 48 -25 95 -153 70 -195 199 -444 337 -650 150 -224 281
-380 511 -610 337 -336 644 -568 1096 -827 978 -561 2184 -908 3555 -1022 422
-36 561 -41 1140 -41 604 0 759 6 1170 46 1894 182 3623 887 4875 1988 223
195 530 495 582 569 68 93 144 236 233 437 123 275 193 401 230 415 15 6 30
26 41 57 l19 48 5 -60 c3 -33 16 -81 28 -106z m-12921 -2581 c87 -55 159 -102
160 -103 2 -1 -53 -106 -121 -235 -117 -219 -125 -231 -130 -199 -4 19 -20
151 -36 294 -16 143 -32 279 -35 303 -4 23 -4 42 -1 42 2 0 76 -46 163 -102z
m1293 -593 c520 -218 950 -400 957 -404 9 -4 -28 -93 -123 -296 -74 -159 -137
-291 -138 -293 -2 -1 -406 162 -897 363 -492 202 -936 383 -986 403 -51 20
-93 41 -93 46 0 8 268 517 297 564 8 13 20 21 26 19 7 -3 437 -183 957 -402z
m1630 -584 c267 -60 478 -111 470 -114 -8 -3 -91 -19 -185 -37 -195 -37 -591
-135 -840 -209 -93 -27 -171 -48 -173 -46 -5 5 231 515 238 515 3 -1 223 -49
490 -109z"/>
<path d="M8780 14969 c-2013 -103 -3652 -547 -4586 -1239 -211 -157 -425 -367
-508 -498 -68 -109 -207 -539 -321 -992 -275 -1099 -445 -2360 -445 -3300 0
-863 152 -2205 406 -3585 40 -216 56 -275 119 -415 176 -398 505 -821 912
-1172 645 -556 1480 -963 2516 -1227 298 -76 421 -101 768 -160 359 -61 473
-75 854 -111 389 -36 498 -42 935 -54 450 -11 533 -11 915 6 382 17 456 23
820 69 339 43 453 62 750 125 1196 255 2264 745 3135 1438 383 305 745 666
1022 1021 115 148 249 349 270 405 32 85 167 636 222 906 132 642 203 1255
236 2049 5 132 17 517 26 855 14 566 14 645 -1 995 -14 337 -21 417 -61 710
-51 378 -45 348 -130 730 -128 583 -337 1208 -569 1700 -31 66 -68 137 -82
158 -16 22 -72 68 -142 115 -801 540 -2014 994 -3326 1246 -599 115 -1325 200
-1969 231 -440 21 -1307 18 -1766 -6z m-2451 -1155 c71 -21 140 -89 172 -170
33 -83 33 -239 0 -334 -67 -195 -240 -333 -396 -317 -283 29 -347 470 -105
716 103 105 213 140 329 105z m-945 -1094 c236 -60 408 -249 483 -528 23 -85
26 -117 27 -257 0 -186 -17 -278 -84 -448 -152 -389 -500 -668 -833 -667 -568
2 -853 725 -533 1357 205 406 595 631 940 543z"/>
<path d="M940 15150 c-166 -27 -328 -108 -444 -223 -90 -90 -142 -168 -182
-277 -153 -408 64 -845 487 -979 408 -130 853 95 996 504 26 74 28 91 28 230
-1 135 -3 158 -27 228 -82 243 -287 434 -537 498 -88 23 -241 32 -321 19z"/>
<path d="M18519 15120 c-231 -58 -411 -202 -509 -405 -62 -130 -75 -184 -75
-330 0 -98 4 -134 23 -195 75 -239 254 -431 482 -516 408 -153 853 36 1010
428 40 101 54 192 47 312 -15 278 -174 514 -432 641 -125 62 -187 77 -340 81
-104 3 -145 0 -206 -16z"/>
</g>
</svg>
